<svg width="197" height="37" viewBox="0 0 197 37" fill="none" xmlns="http://www.w3.org/2000/svg">
<path d="M12.556 28.36C9.96404 28.36 7.79204 27.916 6.04004 27.028C4.28804 26.14 2.78804 24.904 1.54004 23.32L5.42804 18.928C6.62804 20.512 7.84004 21.58 9.06404 22.132C10.312 22.684 11.56 22.96 12.808 22.96C13.744 22.96 14.512 22.792 15.112 22.456C15.712 22.12 16.012 21.616 16.012 20.944C16.012 20.368 15.76 19.888 15.256 19.504C14.776 19.12 14.164 18.82 13.42 18.604C12.676 18.364 11.92 18.16 11.152 17.992C8.36804 17.392 6.29204 16.444 4.92404 15.148C3.55604 13.852 2.87204 12.136 2.87204 9.99999C2.87204 8.43999 3.31604 7.08399 4.20404 5.93198C5.11604 4.75598 6.30404 3.84398 7.76804 3.19598C9.23204 2.52398 10.804 2.18799 12.484 2.18799C15.028 2.18799 17.044 2.58399 18.532 3.37599C20.02 4.14399 21.22 5.19999 22.132 6.54399L18.208 10.324C17.44 9.43599 16.588 8.77599 15.652 8.34399C14.716 7.88799 13.744 7.65999 12.736 7.65999C11.728 7.65999 10.924 7.82799 10.324 8.16399C9.72404 8.49999 9.42404 8.99198 9.42404 9.63998C9.42404 10.144 9.62804 10.564 10.036 10.9C10.468 11.236 11.008 11.512 11.656 11.728C12.304 11.92 12.976 12.088 13.672 12.232C15.424 12.568 16.96 13.06 18.28 13.708C19.624 14.356 20.668 15.208 21.412 16.264C22.156 17.296 22.528 18.58 22.528 20.116C22.528 21.892 22.096 23.392 21.232 24.616C20.368 25.84 19.18 26.776 17.668 27.424C16.18 28.048 14.476 28.36 12.556 28.36Z" fill="#0994A7"/>
<path d="M25.6876 28V14.14H22.3756V8.84799H25.6876V4.02399H31.8076V8.84799H35.3716V14.14H31.8076V28H25.6876Z" fill="#0994A7"/>
<path d="M45.6088 28.36C43.6168 28.36 41.8288 27.928 40.2448 27.064C38.6848 26.2 37.4488 25.024 36.5368 23.536C35.6248 22.048 35.1688 20.344 35.1688 18.424C35.1688 16.504 35.6248 14.8 36.5368 13.312C37.4488 11.8 38.6848 10.612 40.2448 9.74798C41.8288 8.88398 43.6168 8.45198 45.6088 8.45198C47.6008 8.45198 49.3768 8.88398 50.9368 9.74798C52.5208 10.612 53.7568 11.8 54.6448 13.312C55.5568 14.8 56.0128 16.504 56.0128 18.424C56.0128 20.344 55.5568 22.048 54.6448 23.536C53.7568 25.024 52.5208 26.2 50.9368 27.064C49.3768 27.928 47.6008 28.36 45.6088 28.36ZM45.6088 23.14C46.8328 23.14 47.8408 22.696 48.6328 21.808C49.4248 20.92 49.8208 19.792 49.8208 18.424C49.8208 17.032 49.4248 15.892 48.6328 15.004C47.8408 14.092 46.8328 13.636 45.6088 13.636C44.3848 13.636 43.3648 14.092 42.5488 15.004C41.7568 15.892 41.3608 17.032 41.3608 18.424C41.3608 19.792 41.7568 20.92 42.5488 21.808C43.3648 22.696 44.3848 23.14 45.6088 23.14Z" fill="#0994A7"/>
<path d="M57.5799 35.92V8.84799H63.3399L63.4479 10.828C64.0719 10.132 64.8999 9.56798 65.9319 9.13598C66.9639 8.70398 68.0799 8.48798 69.2799 8.48798C70.9119 8.48798 72.3519 8.90798 73.5999 9.74798C74.8719 10.588 75.8679 11.764 76.5879 13.276C77.3319 14.764 77.7039 16.48 77.7039 18.424C77.7039 20.32 77.3319 22.024 76.5879 23.536C75.8679 25.024 74.8599 26.2 73.5639 27.064C72.2919 27.904 70.8399 28.324 69.2079 28.324C68.1279 28.324 67.1079 28.132 66.1479 27.748C65.1879 27.34 64.3719 26.812 63.6999 26.164V35.92H57.5799ZM67.6599 23.212C68.8839 23.212 69.8679 22.78 70.6119 21.916C71.3559 21.052 71.7279 19.888 71.7279 18.424C71.7279 16.936 71.3559 15.76 70.6119 14.896C69.8919 14.032 68.9079 13.6 67.6599 13.6C66.3879 13.6 65.3799 14.032 64.6359 14.896C63.8919 15.76 63.5199 16.936 63.5199 18.424C63.5199 19.888 63.8919 21.052 64.6359 21.916C65.3799 22.78 66.3879 23.212 67.6599 23.212Z" fill="#0994A7"/>
<path d="M97.5484 28.36C95.6284 28.36 93.9364 28.06 92.4724 27.46C91.0324 26.86 89.8804 26.056 89.0164 25.048L92.6884 21.88C93.4324 22.624 94.2724 23.164 95.2084 23.5C96.1684 23.836 97.0564 24.004 97.8724 24.004C98.4964 24.004 98.9764 23.884 99.3124 23.644C99.6484 23.38 99.8164 23.044 99.8164 22.636C99.8164 22.18 99.6124 21.832 99.2044 21.592C98.7724 21.352 97.7644 21.028 96.1804 20.62C93.9724 20.068 92.3404 19.276 91.2844 18.244C90.7804 17.764 90.3964 17.212 90.1324 16.588C89.8684 15.94 89.7364 15.232 89.7364 14.464C89.7364 13.24 90.0964 12.184 90.8164 11.296C91.5364 10.384 92.4844 9.68799 93.6604 9.20799C94.8604 8.70399 96.1324 8.45198 97.4764 8.45198C99.0844 8.45198 100.572 8.71598 101.94 9.24399C103.332 9.74799 104.532 10.444 105.54 11.332L102.372 14.896C101.748 14.32 100.98 13.816 100.068 13.384C99.1804 12.952 98.3164 12.736 97.4764 12.736C96.2284 12.736 95.6044 13.192 95.6044 14.104C95.6044 14.608 95.8564 15.004 96.3604 15.292C96.5764 15.412 96.9484 15.568 97.4764 15.76C98.0044 15.928 98.7364 16.144 99.6724 16.408C100.8 16.72 101.772 17.08 102.588 17.488C103.404 17.872 104.052 18.328 104.532 18.856C105.3 19.696 105.684 20.728 105.684 21.952C105.684 23.2 105.324 24.304 104.604 25.264C103.908 26.224 102.948 26.98 101.724 27.532C100.5 28.084 99.1084 28.36 97.5484 28.36Z" fill="#0994A7"/>
<path d="M108.962 28V8.84799H114.722L114.866 11.224C116.426 9.39998 118.238 8.48798 120.302 8.48798C121.55 8.48798 122.606 8.73998 123.47 9.24399C124.358 9.74799 125.138 10.636 125.81 11.908C126.65 10.732 127.634 9.86798 128.762 9.31598C129.914 8.76398 131.114 8.48798 132.362 8.48798C134.546 8.48798 136.214 9.15998 137.366 10.504C138.518 11.824 139.094 13.756 139.094 16.3V28H132.974V16.768C132.974 14.656 132.074 13.6 130.274 13.6C129.338 13.6 128.57 13.888 127.97 14.464C127.37 15.04 127.07 15.748 127.07 16.588V28H120.95V16.768C120.95 15.736 120.71 14.956 120.23 14.428C119.774 13.876 119.126 13.6 118.286 13.6C117.35 13.6 116.582 13.888 115.982 14.464C115.382 15.016 115.082 15.724 115.082 16.588V28H108.962Z" fill="#0994A7"/>
<path d="M155.65 28V1.35999H161.77V15.328L168.034 8.84799H176.062L167.206 17.128L175.81 28H168.646L163.246 20.872L161.77 22.24V28H155.65Z" fill="#0994A7"/>
<path d="M186.873 28.36C184.737 28.36 182.877 27.94 181.293 27.1C179.733 26.236 178.521 25.06 177.657 23.572C176.793 22.084 176.361 20.392 176.361 18.496C176.361 16.528 176.781 14.8 177.621 13.312C178.461 11.8 179.613 10.612 181.077 9.74798C182.541 8.88398 184.209 8.45198 186.081 8.45198C187.881 8.45198 189.477 8.87198 190.869 9.71199C192.261 10.552 193.341 11.704 194.109 13.168C194.877 14.632 195.249 16.3 195.225 18.172L195.189 19.72H182.265C182.577 20.752 183.177 21.568 184.065 22.168C184.977 22.768 186.141 23.068 187.557 23.068C188.349 23.068 189.045 22.96 189.645 22.744C190.269 22.504 190.929 22.108 191.625 21.556L194.469 25.588C193.269 26.572 192.033 27.28 190.761 27.712C189.489 28.144 188.193 28.36 186.873 28.36ZM186.189 13.492C184.005 13.492 182.673 14.476 182.193 16.444H189.609V16.408C189.561 15.568 189.213 14.872 188.565 14.32C187.941 13.768 187.149 13.492 186.189 13.492Z" fill="#0994A7"/>
<path fill-rule="evenodd" clip-rule="evenodd" d="M0.237549 23.2827L5.4882 17.3514L6.22514 18.3241C7.36787 19.8325 8.457 20.7603 9.47195 21.219C10.6034 21.7189 11.713 21.96 12.808 21.96C13.6321 21.96 14.217 21.8111 14.6234 21.5835C14.797 21.4863 14.8819 21.3915 14.9278 21.3145C14.9729 21.2387 15.012 21.1266 15.012 20.944C15.012 20.7143 14.9343 20.516 14.65 20.2994L14.6406 20.2922L14.6314 20.2849C14.2766 20.0011 13.7909 19.7529 13.1412 19.5643L13.1271 19.5602L13.113 19.5557C12.4005 19.3258 11.6762 19.1303 10.9401 18.9693C8.06254 18.349 5.78845 17.3444 4.2363 15.8739C2.6415 14.3631 1.87204 12.3703 1.87204 9.99999C1.87204 8.23618 2.37911 6.66149 3.41203 5.32148L3.41382 5.31916C4.43366 4.00411 5.7562 2.99399 7.35711 2.2843C8.95583 1.55155 10.6687 1.18799 12.484 1.18799C15.1124 1.18799 17.3092 1.594 18.9962 2.49024C20.6252 3.3321 21.952 4.49768 22.9595 5.98248L23.4326 6.67966L22.2198 7.84799H24.6876V3.02399H32.8076V7.84799H36.3716V11.7795C37.2818 10.5894 38.4138 9.61899 39.7603 8.87319L39.766 8.87007C41.5117 7.91787 43.4673 7.45198 45.6088 7.45198C47.7491 7.45198 49.6944 7.91734 51.4188 8.87177C53.1528 9.81826 54.5207 11.1293 55.5023 12.7975C55.9719 13.5651 56.3303 14.3814 56.58 15.2433V7.84799H64.2869L64.34 8.82171C64.715 8.59521 65.1175 8.39282 65.5458 8.21354C66.7088 7.72672 67.9571 7.48798 69.28 7.48798C71.0917 7.48798 72.7285 7.95706 74.1548 8.91599C75.5891 9.8642 76.6973 11.1832 77.4867 12.8373C78.308 14.4837 78.704 16.3544 78.704 18.424C78.704 20.4527 78.3053 22.3099 77.4865 23.9749C76.6938 25.6117 75.5713 26.9276 74.1187 27.896L74.115 27.8985C72.6678 28.8541 71.0214 29.324 69.208 29.324C68.0065 29.324 66.8599 29.1098 65.7766 28.6765L65.7666 28.6725L65.7568 28.6683C65.3876 28.5114 65.0351 28.3373 64.7 28.1456V36.92H56.58V21.6047C56.33 22.4677 55.9709 23.285 55.5005 24.0535C54.5178 25.6981 53.1499 26.9952 51.419 27.9401C49.6946 28.8946 47.7491 29.36 45.6088 29.36C43.4673 29.36 41.5117 28.8941 39.766 27.9419L39.7603 27.9388C38.0527 26.993 36.6885 25.6971 35.6842 24.0585C34.6663 22.3978 34.1688 20.5094 34.1688 18.424C34.1688 17.2669 34.322 16.1705 34.6322 15.14H32.8076V29H24.6876V15.14H21.8064C21.9541 15.315 22.0942 15.4962 22.2264 15.6836C23.1146 16.9179 23.528 18.4166 23.528 20.116C23.528 22.0593 23.0529 23.7705 22.049 25.1927C21.0681 26.5823 19.7267 27.6297 18.062 28.3431L18.0548 28.3462C16.4234 29.0303 14.5841 29.36 12.556 29.36C9.85517 29.36 7.51754 28.898 5.58795 27.92C3.70278 26.9645 2.09005 25.6339 0.754553 23.9389L0.237549 23.2827ZM21.412 16.264C20.668 15.208 19.624 14.356 18.28 13.708C16.96 13.06 15.424 12.568 13.672 12.232C12.976 12.088 12.304 11.92 11.656 11.728C11.008 11.512 10.468 11.236 10.036 10.9C9.62805 10.564 9.42405 10.144 9.42405 9.63998C9.42405 8.99198 9.72404 8.49999 10.324 8.16399C10.924 7.82799 11.728 7.65999 12.736 7.65999C13.744 7.65999 14.716 7.88799 15.652 8.34399C16.3186 8.65162 16.9425 9.07487 17.5239 9.61374C17.7589 9.83159 17.9869 10.0683 18.208 10.324L22.132 6.54399C21.22 5.19999 20.02 4.14398 18.532 3.37599C17.044 2.58399 15.028 2.18799 12.484 2.18799C10.804 2.18799 9.23204 2.52399 7.76804 3.19598C6.30404 3.84398 5.11604 4.75598 4.20404 5.93198C3.31604 7.08399 2.87204 8.43999 2.87204 9.99999C2.87204 12.136 3.55604 13.852 4.92404 15.148C6.29204 16.444 8.36804 17.392 11.152 17.992C11.92 18.16 12.676 18.364 13.42 18.604C14.164 18.82 14.776 19.12 15.256 19.504C15.76 19.888 16.012 20.368 16.012 20.944C16.012 21.616 15.712 22.12 15.112 22.456C14.512 22.792 13.744 22.96 12.808 22.96C11.56 22.96 10.312 22.684 9.06404 22.132C8.05595 21.6774 7.056 20.8727 6.06418 19.718C5.85176 19.4707 5.63972 19.2074 5.42804 18.928L1.54004 23.32C2.78804 24.904 4.28804 26.14 6.04004 27.028C7.79204 27.916 9.96405 28.36 12.556 28.36C14.476 28.36 16.18 28.048 17.668 27.424C19.18 26.776 20.368 25.84 21.232 24.616C22.096 23.392 22.528 21.892 22.528 20.116C22.528 18.58 22.156 17.296 21.412 16.264ZM10.6619 10.1198C10.981 10.3655 11.4051 10.5887 11.9567 10.7741C12.5693 10.9551 13.2062 11.1142 13.8677 11.2513C15.6849 11.6003 17.3053 12.1159 18.7175 12.8088C19.7496 13.3068 20.6404 13.9249 21.3756 14.6686V8.66117L18.1419 11.7762L17.4517 10.9781C16.7639 10.1828 16.023 9.61656 15.233 9.25194L15.2235 9.24756L15.2141 9.24298C14.4099 8.85119 13.5872 8.65999 12.736 8.65999C11.8249 8.65999 11.2098 8.81411 10.8126 9.03649C10.5046 9.20898 10.424 9.38044 10.424 9.63998C10.424 9.82551 10.4795 9.96636 10.6619 10.1198ZM25.6876 14.14V28H31.8076V14.14H35.3716V8.84799H31.8076V4.02399H25.6876V8.84799H22.3756V14.14H25.6876ZM36.3716 13.5927C36.2703 13.7721 36.1755 13.9545 36.087 14.14C35.9324 14.4641 35.7973 14.7974 35.6817 15.14C35.3398 16.1537 35.1688 17.2483 35.1688 18.424C35.1688 20.344 35.6248 22.048 36.5368 23.536C37.4488 25.024 38.6848 26.2 40.2448 27.064C41.8288 27.928 43.6168 28.36 45.6088 28.36C47.6008 28.36 49.3768 27.928 50.9368 27.064C52.5208 26.2 53.7568 25.024 54.6448 23.536C55.5568 22.048 56.0128 20.344 56.0128 18.424C56.0128 16.504 55.5568 14.8 54.6448 13.312C53.7568 11.8 52.5208 10.612 50.9368 9.74798C49.3768 8.88398 47.6008 8.45198 45.6088 8.45198C43.6168 8.45198 41.8288 8.88398 40.2448 9.74798C38.6848 10.612 37.4488 11.8 36.5368 13.312C36.48 13.4047 36.4249 13.4983 36.3716 13.5927ZM63.7 26.164C64.0038 26.457 64.3372 26.7255 64.7 26.9695C65.1394 27.265 65.6221 27.5245 66.1479 27.748C67.108 28.132 68.128 28.324 69.208 28.324C70.84 28.324 72.292 27.904 73.564 27.064C74.86 26.2 75.868 25.024 76.588 23.536C77.332 22.024 77.704 20.32 77.704 18.424C77.704 16.48 77.332 14.764 76.588 13.276C75.868 11.764 74.872 10.588 73.6 9.74798C72.352 8.90798 70.912 8.48798 69.28 8.48798C68.08 8.48798 66.964 8.70398 65.932 9.13598C65.3595 9.3756 64.8499 9.65582 64.403 9.97666C64.0442 10.2343 63.7258 10.518 63.448 10.828L63.34 8.84799H57.58V35.92H63.7V26.164ZM47.8778 15.6597C47.2786 14.9697 46.5476 14.636 45.6088 14.636C44.6698 14.636 43.9212 14.9705 43.2951 15.6696C42.6937 16.3439 42.3608 17.2333 42.3608 18.424C42.3608 19.5825 42.6891 20.46 43.2902 21.1368C43.9126 21.8116 44.6625 22.14 45.6088 22.14C46.5571 22.14 47.2904 21.8108 47.8865 21.1424C48.4908 20.4649 48.8208 19.5857 48.8208 18.424C48.8208 17.2333 48.4879 16.3439 47.8865 15.6696L47.8778 15.6597ZM42.5488 21.808C41.7568 20.92 41.3608 19.792 41.3608 18.424C41.3608 17.032 41.7568 15.892 42.5488 15.004C43.3648 14.092 44.3848 13.636 45.6088 13.636C46.8328 13.636 47.8408 14.092 48.6328 15.004C49.4248 15.892 49.8208 17.032 49.8208 18.424C49.8208 19.792 49.4248 20.92 48.6328 21.808C47.8408 22.696 46.8328 23.14 45.6088 23.14C44.3848 23.14 43.3648 22.696 42.5488 21.808ZM69.8489 15.5424L69.8437 15.5362C69.3361 14.927 68.6479 14.6 67.66 14.6C66.6413 14.6 65.9244 14.9322 65.3937 15.5485C64.8485 16.1816 64.52 17.1011 64.52 18.424C64.52 19.7181 64.8461 20.6276 65.3937 21.2635C65.9244 21.8798 66.6413 22.212 67.66 22.212C68.6171 22.212 69.3154 21.8891 69.8542 21.2635C70.4018 20.6276 70.728 19.7181 70.728 18.424C70.728 17.1011 70.3994 16.1816 69.8542 15.5485L69.8489 15.5424ZM92.0932 28.3853L92.0878 28.3831C90.5285 27.7334 89.2394 26.8447 88.2571 25.6988L87.6084 24.942L92.7386 20.516L93.3955 21.1729C94.0404 21.8177 94.7548 22.2741 95.5425 22.5574C96.4199 22.8642 97.1937 23.004 97.8724 23.004C98.3612 23.004 98.605 22.912 98.7142 22.8418C98.8042 22.766 98.8164 22.7152 98.8164 22.636C98.8164 22.5621 98.8015 22.5401 98.8007 22.5387C98.7989 22.5356 98.7815 22.5052 98.7073 22.4599C98.3985 22.293 97.5267 21.9995 95.9342 21.5892C93.6441 21.0163 91.8231 20.1663 90.5901 18.9637C89.9919 18.3929 89.5294 17.7293 89.2114 16.9776L89.2062 16.9653C88.8888 16.1863 88.7364 15.3487 88.7364 14.464C88.7364 13.0303 89.1633 11.7493 90.0356 10.6712C90.8708 9.61513 91.9615 8.82215 93.2777 8.28408C94.603 7.72818 96.0055 7.45198 97.4764 7.45198C99.1919 7.45198 100.8 7.73341 102.291 8.30732C103.784 8.84937 105.093 9.60491 106.201 10.5816L106.955 11.2456L102.447 16.3177C102.646 16.4052 102.839 16.4953 103.025 16.5883C103.925 17.0131 104.686 17.5386 105.272 18.1833C106.221 19.2219 106.684 20.4998 106.684 21.952C106.684 23.4042 106.261 24.7185 105.409 25.8573C104.599 26.9732 103.494 27.8307 102.135 28.4436C100.763 29.0625 99.2274 29.36 97.5484 29.36C95.5254 29.36 93.7002 29.0439 92.0932 28.3853ZM104.604 25.264C105.324 24.304 105.684 23.2 105.684 21.952C105.684 20.728 105.3 19.696 104.532 18.856C104.052 18.328 103.404 17.872 102.588 17.488C101.772 17.08 100.8 16.72 99.6724 16.408C98.7364 16.144 98.0044 15.928 97.4764 15.76C96.9484 15.568 96.5764 15.412 96.3604 15.292C95.8564 15.004 95.6044 14.608 95.6044 14.104C95.6044 13.192 96.2284 12.736 97.4764 12.736C98.3164 12.736 99.1804 12.952 100.068 13.384C100.883 13.7699 101.583 14.2133 102.168 14.7141C102.238 14.7739 102.306 14.8346 102.372 14.896L105.54 11.332C105.291 11.1123 105.03 10.9043 104.757 10.7081C103.927 10.1113 102.988 9.62329 101.94 9.24399C100.572 8.71599 99.0844 8.45198 97.4764 8.45198C96.1324 8.45198 94.8604 8.70398 93.6604 9.20799C92.4844 9.68799 91.5364 10.384 90.8164 11.296C90.0964 12.184 89.7364 13.24 89.7364 14.464C89.7364 15.232 89.8684 15.94 90.1324 16.588C90.3964 17.212 90.7804 17.764 91.2844 18.244C92.3404 19.276 93.9724 20.068 96.1804 20.62C97.7644 21.028 98.7724 21.352 99.2044 21.592C99.6124 21.832 99.8164 22.18 99.8164 22.636C99.8164 23.044 99.6484 23.38 99.3124 23.644C98.9764 23.884 98.4964 24.004 97.8724 24.004C97.0564 24.004 96.1684 23.836 95.2084 23.5C94.2724 23.164 93.4324 22.624 92.6884 21.88L89.0164 25.048C89.0271 25.0605 89.0378 25.0729 89.0486 25.0854C89.2552 25.3232 89.4779 25.5495 89.7169 25.7644C90.4732 26.4445 91.3917 27.0097 92.4724 27.46C93.9364 28.06 95.6284 28.36 97.5484 28.36C99.1084 28.36 100.5 28.084 101.724 27.532C102.948 26.98 103.908 26.224 104.604 25.264ZM102.431 16.3107L101.694 15.6308C101.157 15.1349 100.478 14.6843 99.6403 14.2877L99.6309 14.2833C98.8554 13.906 98.1404 13.736 97.4764 13.736C96.9446 13.736 96.7267 13.8384 96.6624 13.8854C96.6408 13.9011 96.636 13.91 96.6312 13.9205C96.6239 13.9365 96.6044 13.9893 96.6044 14.104C96.6044 14.1877 96.6074 14.2801 96.8512 14.4207C96.9925 14.4983 97.2922 14.6284 97.799 14.8132C98.3097 14.9753 99.0221 15.1855 99.941 15.4447C100.857 15.6981 101.688 15.9857 102.431 16.3107ZM107.962 29V7.84799H115.663L115.735 9.03131C117.088 8.02018 118.614 7.48798 120.302 7.48798C121.682 7.48798 122.92 7.76654 123.969 8.37734C124.713 8.80073 125.361 9.41935 125.926 10.1965C126.637 9.44951 127.435 8.85228 128.323 8.41777L128.33 8.41414C129.614 7.79911 130.961 7.48798 132.362 7.48798C134.762 7.48798 136.737 8.23562 138.122 9.84948C139.49 11.4186 140.094 13.6232 140.094 16.3V29H131.974V16.768C131.974 15.8305 131.771 15.314 131.538 15.0406C131.331 14.7979 130.974 14.6 130.274 14.6C129.561 14.6 129.053 14.8111 128.663 15.1854C128.261 15.5707 128.07 16.0172 128.07 16.588V29H119.95V16.768C119.95 15.875 119.741 15.377 119.49 15.1007L119.474 15.0831L119.459 15.0649C119.227 14.7838 118.885 14.6 118.286 14.6C117.573 14.6 117.065 14.8111 116.675 15.1854L116.667 15.1927L116.659 15.1999C116.278 15.5502 116.082 15.9849 116.082 16.588V29H107.962ZM137.366 10.504C136.214 9.15998 134.546 8.48798 132.362 8.48798C131.114 8.48798 129.914 8.76398 128.762 9.31598C127.924 9.72617 127.165 10.3086 126.486 11.0634C126.251 11.3243 126.026 11.6059 125.81 11.908C125.632 11.5717 125.447 11.2623 125.254 10.9797C124.718 10.1933 124.123 9.61474 123.47 9.24399C122.606 8.73998 121.55 8.48798 120.302 8.48798C118.641 8.48798 117.144 9.07839 115.809 10.2592C115.485 10.546 115.171 10.8676 114.866 11.224L114.722 8.84799H108.962V28H115.082V16.588C115.082 15.724 115.382 15.016 115.982 14.464C116.582 13.888 117.35 13.6 118.286 13.6C119.126 13.6 119.774 13.876 120.23 14.428C120.71 14.956 120.95 15.736 120.95 16.768V28H127.07V16.588C127.07 15.748 127.37 15.04 127.97 14.464C128.57 13.888 129.338 13.6 130.274 13.6C132.074 13.6 132.974 14.656 132.974 16.768V28H139.094V16.3C139.094 13.756 138.518 11.824 137.366 10.504ZM154.65 29V0.359985H162.77V12.8547L167.61 7.84799H178.596L168.562 17.2295L177.877 29H168.149L163.116 22.3561L162.77 22.6766V29H154.65ZM161.77 22.24L163.246 20.872L168.646 28H175.81L167.206 17.128L176.062 8.84799H168.034L161.77 15.328V1.35999H155.65V28H161.77V22.24ZM180.816 27.9792L180.808 27.9748C179.096 27.0265 177.75 25.7243 176.792 24.0741C175.83 22.4184 175.361 20.5499 175.361 18.496C175.361 16.3839 175.812 14.4829 176.747 12.8243C177.672 11.1606 178.949 9.84246 180.568 8.88678C182.202 7.92289 184.048 7.45198 186.081 7.45198C188.043 7.45198 189.821 7.91185 191.385 8.8558C192.936 9.79186 194.143 11.0805 194.994 12.7034C195.849 14.3331 196.25 16.1689 196.224 18.1848L196.224 18.1952L196.166 20.72H192.259L195.822 25.7716L195.103 26.3613C193.824 27.4098 192.484 28.1827 191.082 28.6589C189.708 29.1254 188.304 29.36 186.873 29.36C184.604 29.36 182.578 28.9133 180.824 27.9834L180.816 27.9792ZM191.069 20.72H183.919C184.118 20.9496 184.351 21.1542 184.619 21.3359C185.325 21.7988 186.282 22.068 187.557 22.068C188.255 22.068 188.829 21.9732 189.296 21.8067C189.797 21.6122 190.366 21.2775 191.003 20.7725L191.069 20.72ZM189.645 22.744C189.045 22.96 188.349 23.068 187.557 23.068C186.141 23.068 184.977 22.768 184.065 22.168C183.486 21.777 183.03 21.2944 182.696 20.72C182.517 20.4129 182.373 20.0795 182.265 19.72H195.189L195.225 18.172C195.249 16.3 194.877 14.632 194.109 13.168C193.341 11.704 192.261 10.552 190.869 9.71199C189.477 8.87198 187.881 8.45198 186.081 8.45198C184.209 8.45198 182.541 8.88398 181.077 9.74798C179.613 10.612 178.461 11.8 177.621 13.312C176.781 14.8 176.361 16.528 176.361 18.496C176.361 20.392 176.793 22.084 177.657 23.572C178.521 25.06 179.733 26.236 181.293 27.1C182.877 27.94 184.737 28.36 186.873 28.36C188.193 28.36 189.489 28.144 190.761 27.712C192.033 27.28 193.269 26.572 194.469 25.588L191.625 21.556C191.348 21.7752 191.078 21.9697 190.813 22.1397C190.41 22.3979 190.021 22.5993 189.645 22.744ZM187.909 15.0752L187.902 15.069C187.488 14.7031 186.944 14.492 186.189 14.492C185.243 14.492 184.592 14.7045 184.146 15.0343C183.994 15.1466 183.853 15.2817 183.725 15.444H188.258C188.164 15.316 188.05 15.1956 187.916 15.0812L187.909 15.0752ZM189.397 15.444C189.223 15.0195 188.946 14.6448 188.565 14.32C187.941 13.768 187.149 13.492 186.189 13.492C184.413 13.492 183.2 14.1427 182.551 15.444C182.402 15.743 182.282 16.0763 182.193 16.444H189.609V16.408C189.589 16.0623 189.518 15.7409 189.397 15.444ZM70.612 21.916C69.868 22.78 68.8839 23.212 67.66 23.212C66.388 23.212 65.3799 22.78 64.6359 21.916C63.8919 21.052 63.52 19.888 63.52 18.424C63.52 16.936 63.8919 15.76 64.6359 14.896C65.3799 14.032 66.388 13.6 67.66 13.6C68.908 13.6 69.892 14.032 70.612 14.896C71.356 15.76 71.728 16.936 71.728 18.424C71.728 19.888 71.356 21.052 70.612 21.916Z" fill="#FDFCF3"/>
<path fill-rule="evenodd" clip-rule="evenodd" d="M0.237549 23.2827L5.4882 17.3514L6.22514 18.3241C7.36787 19.8325 8.457 20.7603 9.47195 21.219C10.6034 21.7189 11.713 21.96 12.808 21.96C13.6321 21.96 14.217 21.8111 14.6234 21.5835C14.797 21.4863 14.8819 21.3915 14.9278 21.3145C14.9729 21.2387 15.012 21.1266 15.012 20.944C15.012 20.7143 14.9343 20.516 14.65 20.2994L14.6406 20.2922L14.6314 20.2849C14.2766 20.0011 13.7909 19.7529 13.1412 19.5643L13.1271 19.5602L13.113 19.5557C12.4005 19.3258 11.6762 19.1303 10.9401 18.9693C8.06254 18.349 5.78845 17.3444 4.2363 15.8739C2.6415 14.3631 1.87204 12.3703 1.87204 9.99999C1.87204 8.23618 2.37911 6.66149 3.41203 5.32148L3.41382 5.31916C4.43366 4.00411 5.7562 2.99399 7.35711 2.2843C8.95583 1.55155 10.6687 1.18799 12.484 1.18799C15.1124 1.18799 17.3092 1.594 18.9962 2.49024C20.6252 3.3321 21.952 4.49768 22.9595 5.98248L23.4326 6.67966L22.2198 7.84799H24.6876V3.02399H32.8076V7.84799H36.3716V11.7795C37.2818 10.5894 38.4138 9.61899 39.7603 8.87319L39.766 8.87007C41.5117 7.91787 43.4673 7.45198 45.6088 7.45198C47.7491 7.45198 49.6944 7.91734 51.4188 8.87177C53.1528 9.81826 54.5207 11.1293 55.5023 12.7975C55.9719 13.5651 56.3303 14.3814 56.58 15.2433V7.84799H64.2869L64.34 8.82171C64.715 8.59521 65.1175 8.39282 65.5458 8.21354C66.7088 7.72672 67.9571 7.48798 69.28 7.48798C71.0917 7.48798 72.7285 7.95706 74.1548 8.91599C75.5891 9.8642 76.6973 11.1832 77.4867 12.8373C78.308 14.4837 78.704 16.3544 78.704 18.424C78.704 20.4527 78.3053 22.3099 77.4865 23.9749C76.6938 25.6117 75.5713 26.9276 74.1187 27.896L74.115 27.8985C72.6678 28.8541 71.0214 29.324 69.208 29.324C68.0065 29.324 66.8599 29.1098 65.7766 28.6765L65.7666 28.6725L65.7568 28.6683C65.3876 28.5114 65.0351 28.3373 64.7 28.1456V36.92H56.58V21.6047C56.33 22.4677 55.9709 23.285 55.5005 24.0535C54.5178 25.6981 53.1499 26.9952 51.419 27.9401C49.6946 28.8946 47.7491 29.36 45.6088 29.36C43.4673 29.36 41.5117 28.8941 39.766 27.9419L39.7603 27.9388C38.0527 26.993 36.6885 25.6971 35.6842 24.0585C34.6663 22.3978 34.1688 20.5094 34.1688 18.424C34.1688 17.2669 34.322 16.1705 34.6322 15.14H32.8076V29H24.6876V15.14H21.8064C21.9541 15.315 22.0942 15.4962 22.2264 15.6836C23.1146 16.9179 23.528 18.4166 23.528 20.116C23.528 22.0593 23.0529 23.7705 22.049 25.1927C21.0681 26.5823 19.7267 27.6297 18.062 28.3431L18.0548 28.3462C16.4234 29.0303 14.5841 29.36 12.556 29.36C9.85517 29.36 7.51754 28.898 5.58795 27.92C3.70278 26.9645 2.09005 25.6339 0.754553 23.9389L0.237549 23.2827ZM21.412 16.264C20.668 15.208 19.624 14.356 18.28 13.708C16.96 13.06 15.424 12.568 13.672 12.232C12.976 12.088 12.304 11.92 11.656 11.728C11.008 11.512 10.468 11.236 10.036 10.9C9.62805 10.564 9.42405 10.144 9.42405 9.63998C9.42405 8.99198 9.72404 8.49999 10.324 8.16399C10.924 7.82799 11.728 7.65999 12.736 7.65999C13.744 7.65999 14.716 7.88799 15.652 8.34399C16.3186 8.65162 16.9425 9.07487 17.5239 9.61374C17.7589 9.83159 17.9869 10.0683 18.208 10.324L22.132 6.54399C21.22 5.19999 20.02 4.14398 18.532 3.37599C17.044 2.58399 15.028 2.18799 12.484 2.18799C10.804 2.18799 9.23204 2.52399 7.76804 3.19598C6.30404 3.84398 5.11604 4.75598 4.20404 5.93198C3.31604 7.08399 2.87204 8.43999 2.87204 9.99999C2.87204 12.136 3.55604 13.852 4.92404 15.148C6.29204 16.444 8.36804 17.392 11.152 17.992C11.92 18.16 12.676 18.364 13.42 18.604C14.164 18.82 14.776 19.12 15.256 19.504C15.76 19.888 16.012 20.368 16.012 20.944C16.012 21.616 15.712 22.12 15.112 22.456C14.512 22.792 13.744 22.96 12.808 22.96C11.56 22.96 10.312 22.684 9.06404 22.132C8.05595 21.6774 7.056 20.8727 6.06418 19.718C5.85176 19.4707 5.63972 19.2074 5.42804 18.928L1.54004 23.32C2.78804 24.904 4.28804 26.14 6.04004 27.028C7.79204 27.916 9.96405 28.36 12.556 28.36C14.476 28.36 16.18 28.048 17.668 27.424C19.18 26.776 20.368 25.84 21.232 24.616C22.096 23.392 22.528 21.892 22.528 20.116C22.528 18.58 22.156 17.296 21.412 16.264ZM10.6619 10.1198C10.981 10.3655 11.4051 10.5887 11.9567 10.7741C12.5693 10.9551 13.2062 11.1142 13.8677 11.2513C15.6849 11.6003 17.3053 12.1159 18.7175 12.8088C19.7496 13.3068 20.6404 13.9249 21.3756 14.6686V8.66117L18.1419 11.7762L17.4517 10.9781C16.7639 10.1828 16.023 9.61656 15.233 9.25194L15.2235 9.24756L15.2141 9.24298C14.4099 8.85119 13.5872 8.65999 12.736 8.65999C11.8249 8.65999 11.2098 8.81411 10.8126 9.03649C10.5046 9.20898 10.424 9.38044 10.424 9.63998C10.424 9.82551 10.4795 9.96636 10.6619 10.1198ZM25.6876 14.14V28H31.8076V14.14H35.3716V8.84799H31.8076V4.02399H25.6876V8.84799H22.3756V14.14H25.6876ZM36.3716 13.5927C36.2703 13.7721 36.1755 13.9545 36.087 14.14C35.9324 14.4641 35.7973 14.7974 35.6817 15.14C35.3398 16.1537 35.1688 17.2483 35.1688 18.424C35.1688 20.344 35.6248 22.048 36.5368 23.536C37.4488 25.024 38.6848 26.2 40.2448 27.064C41.8288 27.928 43.6168 28.36 45.6088 28.36C47.6008 28.36 49.3768 27.928 50.9368 27.064C52.5208 26.2 53.7568 25.024 54.6448 23.536C55.5568 22.048 56.0128 20.344 56.0128 18.424C56.0128 16.504 55.5568 14.8 54.6448 13.312C53.7568 11.8 52.5208 10.612 50.9368 9.74798C49.3768 8.88398 47.6008 8.45198 45.6088 8.45198C43.6168 8.45198 41.8288 8.88398 40.2448 9.74798C38.6848 10.612 37.4488 11.8 36.5368 13.312C36.48 13.4047 36.4249 13.4983 36.3716 13.5927ZM63.7 26.164C64.0038 26.457 64.3372 26.7255 64.7 26.9695C65.1394 27.265 65.6221 27.5245 66.1479 27.748C67.108 28.132 68.128 28.324 69.208 28.324C70.84 28.324 72.292 27.904 73.564 27.064C74.86 26.2 75.868 25.024 76.588 23.536C77.332 22.024 77.704 20.32 77.704 18.424C77.704 16.48 77.332 14.764 76.588 13.276C75.868 11.764 74.872 10.588 73.6 9.74798C72.352 8.90798 70.912 8.48798 69.28 8.48798C68.08 8.48798 66.964 8.70398 65.932 9.13598C65.3595 9.3756 64.8499 9.65582 64.403 9.97666C64.0442 10.2343 63.7258 10.518 63.448 10.828L63.34 8.84799H57.58V35.92H63.7V26.164ZM47.8778 15.6597C47.2786 14.9697 46.5476 14.636 45.6088 14.636C44.6698 14.636 43.9212 14.9705 43.2951 15.6696C42.6937 16.3439 42.3608 17.2333 42.3608 18.424C42.3608 19.5825 42.6891 20.46 43.2902 21.1368C43.9126 21.8116 44.6625 22.14 45.6088 22.14C46.5571 22.14 47.2904 21.8108 47.8865 21.1424C48.4908 20.4649 48.8208 19.5857 48.8208 18.424C48.8208 17.2333 48.4879 16.3439 47.8865 15.6696L47.8778 15.6597ZM42.5488 21.808C41.7568 20.92 41.3608 19.792 41.3608 18.424C41.3608 17.032 41.7568 15.892 42.5488 15.004C43.3648 14.092 44.3848 13.636 45.6088 13.636C46.8328 13.636 47.8408 14.092 48.6328 15.004C49.4248 15.892 49.8208 17.032 49.8208 18.424C49.8208 19.792 49.4248 20.92 48.6328 21.808C47.8408 22.696 46.8328 23.14 45.6088 23.14C44.3848 23.14 43.3648 22.696 42.5488 21.808ZM69.8489 15.5424L69.8437 15.5362C69.3361 14.927 68.6479 14.6 67.66 14.6C66.6413 14.6 65.9244 14.9322 65.3937 15.5485C64.8485 16.1816 64.52 17.1011 64.52 18.424C64.52 19.7181 64.8461 20.6276 65.3937 21.2635C65.9244 21.8798 66.6413 22.212 67.66 22.212C68.6171 22.212 69.3154 21.8891 69.8542 21.2635C70.4018 20.6276 70.728 19.7181 70.728 18.424C70.728 17.1011 70.3994 16.1816 69.8542 15.5485L69.8489 15.5424ZM92.0932 28.3853L92.0878 28.3831C90.5285 27.7334 89.2394 26.8447 88.2571 25.6988L87.6084 24.942L92.7386 20.516L93.3955 21.1729C94.0404 21.8177 94.7548 22.2741 95.5425 22.5574C96.4199 22.8642 97.1937 23.004 97.8724 23.004C98.3612 23.004 98.605 22.912 98.7142 22.8418C98.8042 22.766 98.8164 22.7152 98.8164 22.636C98.8164 22.5621 98.8015 22.5401 98.8007 22.5387C98.7989 22.5356 98.7815 22.5052 98.7073 22.4599C98.3985 22.293 97.5267 21.9995 95.9342 21.5892C93.6441 21.0163 91.8231 20.1663 90.5901 18.9637C89.9919 18.3929 89.5294 17.7293 89.2114 16.9776L89.2062 16.9653C88.8888 16.1863 88.7364 15.3487 88.7364 14.464C88.7364 13.0303 89.1633 11.7493 90.0356 10.6712C90.8708 9.61513 91.9615 8.82215 93.2777 8.28408C94.603 7.72818 96.0055 7.45198 97.4764 7.45198C99.1919 7.45198 100.8 7.73341 102.291 8.30732C103.784 8.84937 105.093 9.60491 106.201 10.5816L106.955 11.2456L102.447 16.3177C102.646 16.4052 102.839 16.4953 103.025 16.5883C103.925 17.0131 104.686 17.5386 105.272 18.1833C106.221 19.2219 106.684 20.4998 106.684 21.952C106.684 23.4042 106.261 24.7185 105.409 25.8573C104.599 26.9732 103.494 27.8307 102.135 28.4436C100.763 29.0625 99.2274 29.36 97.5484 29.36C95.5254 29.36 93.7002 29.0439 92.0932 28.3853ZM104.604 25.264C105.324 24.304 105.684 23.2 105.684 21.952C105.684 20.728 105.3 19.696 104.532 18.856C104.052 18.328 103.404 17.872 102.588 17.488C101.772 17.08 100.8 16.72 99.6724 16.408C98.7364 16.144 98.0044 15.928 97.4764 15.76C96.9484 15.568 96.5764 15.412 96.3604 15.292C95.8564 15.004 95.6044 14.608 95.6044 14.104C95.6044 13.192 96.2284 12.736 97.4764 12.736C98.3164 12.736 99.1804 12.952 100.068 13.384C100.883 13.7699 101.583 14.2133 102.168 14.7141C102.238 14.7739 102.306 14.8346 102.372 14.896L105.54 11.332C105.291 11.1123 105.03 10.9043 104.757 10.7081C103.927 10.1113 102.988 9.62329 101.94 9.24399C100.572 8.71599 99.0844 8.45198 97.4764 8.45198C96.1324 8.45198 94.8604 8.70398 93.6604 9.20799C92.4844 9.68799 91.5364 10.384 90.8164 11.296C90.0964 12.184 89.7364 13.24 89.7364 14.464C89.7364 15.232 89.8684 15.94 90.1324 16.588C90.3964 17.212 90.7804 17.764 91.2844 18.244C92.3404 19.276 93.9724 20.068 96.1804 20.62C97.7644 21.028 98.7724 21.352 99.2044 21.592C99.6124 21.832 99.8164 22.18 99.8164 22.636C99.8164 23.044 99.6484 23.38 99.3124 23.644C98.9764 23.884 98.4964 24.004 97.8724 24.004C97.0564 24.004 96.1684 23.836 95.2084 23.5C94.2724 23.164 93.4324 22.624 92.6884 21.88L89.0164 25.048C89.0271 25.0605 89.0378 25.0729 89.0486 25.0854C89.2552 25.3232 89.4779 25.5495 89.7169 25.7644C90.4732 26.4445 91.3917 27.0097 92.4724 27.46C93.9364 28.06 95.6284 28.36 97.5484 28.36C99.1084 28.36 100.5 28.084 101.724 27.532C102.948 26.98 103.908 26.224 104.604 25.264ZM102.431 16.3107L101.694 15.6308C101.157 15.1349 100.478 14.6843 99.6403 14.2877L99.6309 14.2833C98.8554 13.906 98.1404 13.736 97.4764 13.736C96.9446 13.736 96.7267 13.8384 96.6624 13.8854C96.6408 13.9011 96.636 13.91 96.6312 13.9205C96.6239 13.9365 96.6044 13.9893 96.6044 14.104C96.6044 14.1877 96.6074 14.2801 96.8512 14.4207C96.9925 14.4983 97.2922 14.6284 97.799 14.8132C98.3097 14.9753 99.0221 15.1855 99.941 15.4447C100.857 15.6981 101.688 15.9857 102.431 16.3107ZM107.962 29V7.84799H115.663L115.735 9.03131C117.088 8.02018 118.614 7.48798 120.302 7.48798C121.682 7.48798 122.92 7.76654 123.969 8.37734C124.713 8.80073 125.361 9.41935 125.926 10.1965C126.637 9.44951 127.435 8.85228 128.323 8.41777L128.33 8.41414C129.614 7.79911 130.961 7.48798 132.362 7.48798C134.762 7.48798 136.737 8.23562 138.122 9.84948C139.49 11.4186 140.094 13.6232 140.094 16.3V29H131.974V16.768C131.974 15.8305 131.771 15.314 131.538 15.0406C131.331 14.7979 130.974 14.6 130.274 14.6C129.561 14.6 129.053 14.8111 128.663 15.1854C128.261 15.5707 128.07 16.0172 128.07 16.588V29H119.95V16.768C119.95 15.875 119.741 15.377 119.49 15.1007L119.474 15.0831L119.459 15.0649C119.227 14.7838 118.885 14.6 118.286 14.6C117.573 14.6 117.065 14.8111 116.675 15.1854L116.667 15.1927L116.659 15.1999C116.278 15.5502 116.082 15.9849 116.082 16.588V29H107.962ZM137.366 10.504C136.214 9.15998 134.546 8.48798 132.362 8.48798C131.114 8.48798 129.914 8.76398 128.762 9.31598C127.924 9.72617 127.165 10.3086 126.486 11.0634C126.251 11.3243 126.026 11.6059 125.81 11.908C125.632 11.5717 125.447 11.2623 125.254 10.9797C124.718 10.1933 124.123 9.61474 123.47 9.24399C122.606 8.73998 121.55 8.48798 120.302 8.48798C118.641 8.48798 117.144 9.07839 115.809 10.2592C115.485 10.546 115.171 10.8676 114.866 11.224L114.722 8.84799H108.962V28H115.082V16.588C115.082 15.724 115.382 15.016 115.982 14.464C116.582 13.888 117.35 13.6 118.286 13.6C119.126 13.6 119.774 13.876 120.23 14.428C120.71 14.956 120.95 15.736 120.95 16.768V28H127.07V16.588C127.07 15.748 127.37 15.04 127.97 14.464C128.57 13.888 129.338 13.6 130.274 13.6C132.074 13.6 132.974 14.656 132.974 16.768V28H139.094V16.3C139.094 13.756 138.518 11.824 137.366 10.504ZM154.65 29V0.359985H162.77V12.8547L167.61 7.84799H178.596L168.562 17.2295L177.877 29H168.149L163.116 22.3561L162.77 22.6766V29H154.65ZM161.77 22.24L163.246 20.872L168.646 28H175.81L167.206 17.128L176.062 8.84799H168.034L161.77 15.328V1.35999H155.65V28H161.77V22.24ZM180.816 27.9792L180.808 27.9748C179.096 27.0265 177.75 25.7243 176.792 24.0741C175.83 22.4184 175.361 20.5499 175.361 18.496C175.361 16.3839 175.812 14.4829 176.747 12.8243C177.672 11.1606 178.949 9.84246 180.568 8.88678C182.202 7.92289 184.048 7.45198 186.081 7.45198C188.043 7.45198 189.821 7.91185 191.385 8.8558C192.936 9.79186 194.143 11.0805 194.994 12.7034C195.849 14.3331 196.25 16.1689 196.224 18.1848L196.224 18.1952L196.166 20.72H192.259L195.822 25.7716L195.103 26.3613C193.824 27.4098 192.484 28.1827 191.082 28.6589C189.708 29.1254 188.304 29.36 186.873 29.36C184.604 29.36 182.578 28.9133 180.824 27.9834L180.816 27.9792ZM191.069 20.72H183.919C184.118 20.9496 184.351 21.1542 184.619 21.3359C185.325 21.7988 186.282 22.068 187.557 22.068C188.255 22.068 188.829 21.9732 189.296 21.8067C189.797 21.6122 190.366 21.2775 191.003 20.7725L191.069 20.72ZM189.645 22.744C189.045 22.96 188.349 23.068 187.557 23.068C186.141 23.068 184.977 22.768 184.065 22.168C183.486 21.777 183.03 21.2944 182.696 20.72C182.517 20.4129 182.373 20.0795 182.265 19.72H195.189L195.225 18.172C195.249 16.3 194.877 14.632 194.109 13.168C193.341 11.704 192.261 10.552 190.869 9.71199C189.477 8.87198 187.881 8.45198 186.081 8.45198C184.209 8.45198 182.541 8.88398 181.077 9.74798C179.613 10.612 178.461 11.8 177.621 13.312C176.781 14.8 176.361 16.528 176.361 18.496C176.361 20.392 176.793 22.084 177.657 23.572C178.521 25.06 179.733 26.236 181.293 27.1C182.877 27.94 184.737 28.36 186.873 28.36C188.193 28.36 189.489 28.144 190.761 27.712C192.033 27.28 193.269 26.572 194.469 25.588L191.625 21.556C191.348 21.7752 191.078 21.9697 190.813 22.1397C190.41 22.3979 190.021 22.5993 189.645 22.744ZM187.909 15.0752L187.902 15.069C187.488 14.7031 186.944 14.492 186.189 14.492C185.243 14.492 184.592 14.7045 184.146 15.0343C183.994 15.1466 183.853 15.2817 183.725 15.444H188.258C188.164 15.316 188.05 15.1956 187.916 15.0812L187.909 15.0752ZM189.397 15.444C189.223 15.0195 188.946 14.6448 188.565 14.32C187.941 13.768 187.149 13.492 186.189 13.492C184.413 13.492 183.2 14.1427 182.551 15.444C182.402 15.743 182.282 16.0763 182.193 16.444H189.609V16.408C189.589 16.0623 189.518 15.7409 189.397 15.444ZM70.612 21.916C69.868 22.78 68.8839 23.212 67.66 23.212C66.388 23.212 65.3799 22.78 64.6359 21.916C63.8919 21.052 63.52 19.888 63.52 18.424C63.52 16.936 63.8919 15.76 64.6359 14.896C65.3799 14.032 66.388 13.6 67.66 13.6C68.908 13.6 69.892 14.032 70.612 14.896C71.356 15.76 71.728 16.936 71.728 18.424C71.728 19.888 71.356 21.052 70.612 21.916Z" fill="url(#paint0_linear)"/>
<path d="M147.44 27.908C145.448 27.908 143.66 27.476 142.076 26.612C140.516 25.748 139.28 24.572 138.368 23.084C137.456 21.596 137 19.892 137 17.972C137 16.052 137.456 14.348 138.368 12.86C139.28 11.348 140.516 10.16 142.076 9.296C143.66 8.432 145.448 8 147.44 8C149.432 8 151.208 8.432 152.768 9.296C154.352 10.16 155.588 11.348 156.476 12.86C157.388 14.348 157.844 16.052 157.844 17.972C157.844 19.892 157.388 21.596 156.476 23.084C155.588 24.572 154.352 25.748 152.768 26.612C151.208 27.476 149.432 27.908 147.44 27.908ZM147.44 20.356C148.621 20.356 152.464 20.356 152.464 20.356V17.972V15.552H147.44H142.38L142.312 18.048L142.38 20.356C142.38 20.356 146.245 20.356 147.44 20.356Z" fill="#F22C44"/>
<defs>
<linearGradient id="paint0_linear" x1="99" y1="-8.00001" x2="99" y2="37" gradientUnits="userSpaceOnUse">
<stop stop-color="white"/>
<stop offset="1" stop-color="white" stop-opacity="0"/>
</linearGradient>
</defs>
</svg>
